<svg xmlns="http://www.w3.org/2000/svg" xml:space="preserve" width="2000" height="1500" data-id="lg_W8ChawtXRzJiXb6Mjh" data-version="1" viewBox="0 0 2000 1500"><path fill="#122023" stroke="transparent" d="M0 0h2000v1500H0z"/><g data-padding="20"><g transform="translate(-1651.786 -1249.554)scale(2.5829)"><rect width="343.502" height="100.57" x="454.222" y="323.863" fill="none" rx="0" ry="0" transform="translate(508.75 411.88)"/><path fill="#fff" d="M989.583 814.638q-4.99 0-9.64-1.56t-8.12-4.45-4.89-6.9l5.83-2.18q.98 2.76 3.58 4.74t6.1 3.05q3.49 1.07 7.14 1.07 4.27 0 7.96-1.43 3.7-1.42 5.97-3.98t2.27-6.03q0-3.51-2.36-5.78t-6.08-3.58q-3.71-1.32-7.76-2.03-6.36-1.11-11.42-3.03-5.05-1.91-7.98-5.4-2.94-3.5-2.94-9.24 0-5.38 3.11-9.34 3.12-3.96 8.22-6.14 5.09-2.18 11.01-2.18 4.85 0 9.48 1.51t8.16 4.41q3.54 2.89 5.1 7.07l-5.92 2.14q-.98-2.81-3.58-4.79-2.61-1.98-6.08-3.02-3.47-1.05-7.16-1.05-4.23-.04-7.9 1.4-3.67 1.45-5.94 4.01t-2.27 5.98q0 4.01 2.11 6.17 2.12 2.16 5.77 3.22 3.65 1.07 8.23 1.92 5.96 1.02 11.08 3.18t8.23 5.74q3.12 3.58 3.12 8.83 0 5.34-3.12 9.33-3.11 3.98-8.21 6.16-5.09 2.18-11.1 2.18m30.75-1.15 22.65-62.3h7.74l22.7 62.3h-6.63l-4.85-13.35h-30.13l-4.85 13.35Zm26.52-54.64-12.77 35.06h25.54Zm43.03 54.64h-6.23v-62.3h6.23Zm18.33 0h-6.32l12.06-62.3h4.54l17.44 45.84 17.35-45.84h4.54l12.11 62.3h-6.37l-9.21-47.66-16.46 43.57h-4.01l-16.46-43.57Zm79.96 0h-6.23v-62.3h6.23Zm18.34 0h-6.32l12.06-62.3h4.54l17.44 45.84 17.35-45.84h4.54l12.11 62.3h-6.37l-9.21-47.66-16.46 43.57h-4.01l-16.46-43.57Z"/><path fill="#2ecc40" fill-rule="evenodd" d="m829.766 691.132.103-.052.052-.026.077-.077.052-.052q0-.051.051-.077v-.103l.026-.026v-.078l.026-.051v-.103l.026-.052v-.155l.026-.13.103-.076-.078-.052v.13l-1.47 1.109Zm.568-1.084c1.006.36 1.315-.568 1.806-1.161l.13-.103.128-.13Zm34.572 136.74c23.555-27.967 38.313-59.83 41.331-96.621a74.8 74.8 0 0 0-3.767-32.121c-1.238-3.406-2.27-7.043-5.314-9.443q-5.109-4.128-11.017-7.12a46.44 46.44 0 0 0-26.935-4.877c-9.185 1.135-17.157 5.005-24.51 10.398l-.103.077c-.258.18-.465.36-.258.748.387.258.645 0 .954-.18 5.47-2.58 11.094-4.773 17.106-5.6 12.487-1.728 23.09 1.6 31.037 11.74 6.656 8.462 9.16 18.447 10.062 28.896.955 10.836.052 21.595-2.477 32.147-9.417 39.216-28.896 71.646-63.416 94.17q-.052-.078 0 .026c1.96.748 3.947 1.419 5.856 2.218 1.161.49 2.064.362 3.174-.258a111 111 0 0 0 28.25-24.174" vector-effect="non-scaling-stroke"/><path fill="#2ecc40" fill-rule="evenodd" d="M849.03 821.628c19.401-23.607 31.398-50.31 33.282-81.09.774-12.306-.723-24.33-7.044-35.242-5.934-10.217-14.757-16.022-26.832-16.46-7.275-.26-14.035 1.676-20.64 4.463-.05-1.858-.903-.877-1.548-.413a121.3 121.3 0 0 0-26.006 24.845 162.5 162.5 0 0 0-27.735 53.329c-2.116 6.966-3.612 14.035-4.722 21.208-.18 1.238.104 1.6 1.394 1.625 5.108.077 5.108.129 5.83-4.902l.181-1.496a175.4 175.4 0 0 1 26.935-65.12 142 142 0 0 1 22.085-26.238c.826.619-.568 1.058-.258 1.625q0 .052.077.13h.465l1.032-.31c6.424-1.78 12.9-2.322 19.401-.645 11.352 2.915 18.19 10.707 22.266 21.259 4.824 12.46 4.8 25.335 2.786 38.287a129 129 0 0 1-19.737 50.568c-9.597 14.706-21.259 27.348-36.945 35.81-.207.13-.516.258-.362.62l.362.206c1.42.516 2.89.955 4.23 1.625 1.652.8 2.942.516 4.542-.387a100.6 100.6 0 0 0 26.96-23.297m35.295 8.179a216.7 216.7 0 0 0 43.963-84.031 14.45 14.45 0 0 0-.206-9.391 126.4 126.4 0 0 0-8.566-19.3 173 173 0 0 1-1.883 19.093 188.3 188.3 0 0 1-23.53 63.907c-9.88 16.976-21.827 32.276-37.049 44.892a111 111 0 0 1-14.06 9.752c2.528.955 4.747 1.729 6.914 2.658 1.316.593 2.348.387 3.56-.361a131.6 131.6 0 0 0 30.857-27.22" vector-effect="non-scaling-stroke"/><path fill="#2ecc40" fill-rule="evenodd" d="M836.792 800.446c-.284.516-.62 1.007-.723 1.548a67 67 0 0 1-6.398 19.634c.438-.077.722-.051.851-.155q1.806-1.986 3.535-4.076a121.26 121.26 0 0 0 25.98-57.637c1.806-11.275 1.652-22.524-1.986-33.49-4.98-15.117-16.64-25.412-33.979-23.993-4.334.362-5.882 1.445-7.508 5.934l.155.078 1.084.077c13.725.13 23.065 6.915 28.612 19.17 4.85 10.758 5.212 22.162 3.793 33.643a105.8 105.8 0 0 1-13.416 39.267" vector-effect="non-scaling-stroke"/><path fill="#2ecc40" fill-rule="evenodd" d="M820.762 744.083q.155-.361.18-.62a2.6 2.6 0 0 0-.232-1.031 33.54 33.54 0 0 0-9.133-12.642c-1.342-1.084-3.793-1.47-3.896-3.225-.103-1.6 1.29-3.277 1.884-4.954.36-1.057.774-1.212 1.831-.825q8.824 3.173 13.984 10.99c5.986 9.03 7.43 19.144 6.94 29.696-.05 1.187 0 2.27.413 3.354a72.2 72.2 0 0 1 3.87 16.925c.903-.516.877-1.341 1.084-1.986a87.7 87.7 0 0 0 3.302-14.706c1.367-10.527 1.161-20.976-2.864-31.012-3.92-9.727-10.449-16.77-20.924-19.427-3.74-.955-3.715-.93-5.856 2.244a193.5 193.5 0 0 0-17.08 31.09 178 178 0 0 0-13.235 44.427c-.18 1.212 0 1.548 1.187 1.47a33.5 33.5 0 0 1 4.54 0c1.523.13 1.935-.567 2.142-1.935 1.445-8.875 3.74-17.544 6.372-26.11 2.168-7.068 5.573-13.7 6.915-21.052.645-3.612 1.832-7.07 2.683-10.63.387-1.573.877-1.91 2.425-1.032a51.6 51.6 0 0 1 13.468 10.99m113.7 20.125c-16.537 38.778-38.132 73.169-73.659 97.11 2.735 1.033 5.367 1.962 7.947 3.02 1.032.439 1.806.258 2.735-.361a139.3 139.3 0 0 0 19.866-15.867c18.06-17.286 32.198-37.436 44.092-59.29q.645-1.134.62-2.45a157 157 0 0 0-1.6-22.162m-54.619 104.18c3.173 1.187 6.011 2.142 8.772 3.329 1.393.593 2.373.284 3.534-.516 13.03-9.108 24.175-20.202 34.547-32.121.696-.8 1.032-1.73 1.341-2.683a150 150 0 0 0 5.573-21.208c.155-.826.44-1.73-.103-2.786-14.913 21.543-31.502 41.176-53.664 55.986m-69.97-163.856a100.6 100.6 0 0 0-14.99 11.558 131.6 131.6 0 0 0-29.774 44.48q-6.32 15.22-8.514 31.527c-.05.593-.438 1.625.258 1.729q2.374.387 4.696 0c1.083-.207.774-1.548.877-2.4.8-6.295 2.193-12.461 3.973-18.524q8.488-28.638 27.374-51.832 7.38-8.901 16.1-16.512" vector-effect="non-scaling-stroke"/><path fill="#2ecc40" fill-rule="evenodd" d="m789.457 719.478-.413-.464a25.8 25.8 0 0 0-6.63 4.773 112.23 112.23 0 0 0-35.244 66.177c-.619 4.23-.645 4.18 3.096 4.128 1.084-.052 1.548-.336 1.548-1.445q.104-1.858.465-3.638a121.26 121.26 0 0 1 31.115-63.468q2.967-3.096 6.063-6.09" vector-effect="non-scaling-stroke"/></g><path fill="transparent" stroke="transparent" stroke-width="2.679" d="M250 487.5h1500v525H250z"/></g></svg>